# xmcd CD database file
#
# Track frame offsets:
#	180
#	14180
#	27792
#	40120
#	53560
#	69482
#	84650
#	101657
#	114800
#	133150
#	150005
#	166342
#	182810
#	197307
#
# Disc length: 2799 seconds
#
# Revision: 0
# Processed by: cddbd v1.4PL0 Copyright (c) Steve Scherf et al.
# Submitted via: CDex 1.50beta8
#
DISCID=a70aed0e
DTITLE=Varios - O melhor som da Terra
DYEAR=1996
DGENRE=Country
TTITLE0=Amargurado
TTITLE1=Moda da mula preta
TTITLE2=Piao sabido
TTITLE3=A enxada e a caneta
TTITLE4=O milagre do ladrao
TTITLE5=Cabloca Tereza
TTITLE6=O cio da Terra
TTITLE7=Rei do gado
TTITLE8=Cavalo Zaino
TTITLE9=Nelore valente
TTITLE10=Rei do cafe
TTITLE11=Ladrao de terra
TTITLE12=Berrante de Madalena
TTITLE13=Triste licao
EXTD=YEAR: 1996
EXTT0=
EXTT1=
EXTT2=
EXTT3=
EXTT4=
EXTT5=
EXTT6=
EXTT7=
EXTT8=
EXTT9=
EXTT10=
EXTT11=
EXTT12=
EXTT13=
PLAYORDER=
